<?xml version="1.0" encoding="UTF-8" standalone="no"?>
<!-- Created with Inkscape (http://www.inkscape.org/) -->

<svg
   xmlns:osb="http://www.openswatchbook.org/uri/2009/osb"
   xmlns:dc="http://purl.org/dc/elements/1.1/"
   xmlns:cc="http://creativecommons.org/ns#"
   xmlns:rdf="http://www.w3.org/1999/02/22-rdf-syntax-ns#"
   xmlns:svg="http://www.w3.org/2000/svg"
   xmlns="http://www.w3.org/2000/svg"
   xmlns:sodipodi="http://sodipodi.sourceforge.net/DTD/sodipodi-0.dtd"
   xmlns:inkscape="http://www.inkscape.org/namespaces/inkscape"
   width="16"
   height="16"
   viewBox="0 0 4.2333333 4.2333333"
   version="1.1"
   id="svg8"
   inkscape:version="0.92.3 (2405546, 2018-03-11)"
   sodipodi:docname="facc-concept-favicon-monochrome-bg-light.svg">
  <defs
     id="defs2">
    <linearGradient
       id="linearGradient3890"
       osb:paint="solid">
      <stop
         style="stop-color:#ff0505;stop-opacity:1;"
         offset="0"
         id="stop3888" />
    </linearGradient>
  </defs>
  <sodipodi:namedview
     id="base"
     pagecolor="#ffffff"
     bordercolor="#666666"
     borderopacity="1.0"
     inkscape:pageopacity="0.0"
     inkscape:pageshadow="2"
     inkscape:zoom="32"
     inkscape:cx="-4.7521247"
     inkscape:cy="6.8068337"
     inkscape:document-units="mm"
     inkscape:current-layer="layer1"
     showgrid="false"
     units="px"
     inkscape:window-width="1920"
     inkscape:window-height="1007"
     inkscape:window-x="1920"
     inkscape:window-y="0"
     inkscape:window-maximized="1"
     showborder="true"
     borderlayer="false"
     inkscape:pagecheckerboard="true" />
  <metadata
     id="metadata5">
    <rdf:RDF>
      <cc:Work
         rdf:about="">
        <dc:format>image/svg+xml</dc:format>
        <dc:type
           rdf:resource="http://purl.org/dc/dcmitype/StillImage" />
        <dc:title></dc:title>
      </cc:Work>
    </rdf:RDF>
  </metadata>
  <g
     inkscape:label="Layer 1"
     inkscape:groupmode="layer"
     id="layer1"
     transform="translate(0,-292.76673)">
    <path
       style="fill:none;fill-rule:evenodd;stroke:#000000;stroke-width:0.12841111;stroke-linecap:butt;stroke-linejoin:miter;stroke-miterlimit:4;stroke-dasharray:none;stroke-opacity:1"
       d="M 1.0481799,294.20962 H 1.720567"
       id="path14753"
       inkscape:connector-curvature="0"
       sodipodi:nodetypes="cc" />
    <path
       style="fill:none;fill-rule:evenodd;stroke:#000000;stroke-width:0.12841111;stroke-linecap:butt;stroke-linejoin:miter;stroke-miterlimit:4;stroke-dasharray:none;stroke-opacity:1"
       d="M 0.59103438,294.20962 H 1.0481799"
       id="path10854"
       inkscape:connector-curvature="0" />
    <path
       id="path817"
       style="opacity:0.98999999;fill:#000000;fill-opacity:1;stroke:none;stroke-width:0.12841111;stroke-linecap:butt;stroke-linejoin:round;stroke-miterlimit:4;stroke-dasharray:none;stroke-opacity:1"
       d="m 1.8545166,293.16398 -0.1313903,0.38492 c -0.094053,0.0279 -0.184889,0.0657 -0.2709979,0.11274 l -0.3610428,-0.18166 -0.37380374,0.37381 0.17372722,0.37053 c -0.0460859,0.0862 -0.0829869,0.17681 -0.11009529,0.27063 l -0.38374755,0.1229 v 0.52863 l 0.38493747,0.13024 c 0.027608,0.0932 0.0649151,0.18344 0.11131352,0.26897 l -0.17839898,0.36429 0.37380365,0.37379 0.3698678,-0.17343 c 0.084635,0.0453 0.1737271,0.0817 0.265854,0.10874 l 0.1268741,0.38374 h 0.5286444 l 0.1333633,-0.38493 c 0.092853,-0.0276 0.1825626,-0.0651 0.267671,-0.11127 l 0.3645327,0.17815 0.3738039,-0.37381 -0.1751907,-0.36919 c 0.045029,-0.0842 0.081281,-0.1728 0.1081865,-0.26439 l 0.3837382,-0.12771 v -0.52863 l -0.3849377,-0.13403 c -0.028486,-0.0953 -0.067074,-0.18703 -0.1151032,-0.27399 l 0.182798,-0.3599 -0.3738036,-0.3738 -0.3640331,0.18034 c -0.086965,-0.0469 -0.178671,-0.0844 -0.2735697,-0.1118 l -0.1243561,-0.38375 z m 1.106368,1.71973 a 0.84359553,0.84359553 0 0 1 -0.8435958,0.8436 0.84359553,0.84359553 0 0 1 -0.8435953,-0.8436 0.84359553,0.84359553 0 0 1 0.8435953,-0.84359 0.84359553,0.84359553 0 0 1 0.8435958,0.84359 z"
       inkscape:connector-curvature="0" />
    <path
       style="fill:none;fill-rule:evenodd;stroke:#000000;stroke-width:0.12841111;stroke-linecap:butt;stroke-linejoin:miter;stroke-miterlimit:4;stroke-dasharray:none;stroke-opacity:1"
       d="m 1.720567,294.20962 c 0.5187223,0 0.780187,-0.0184 0.780187,0.22208 0,0.46404 -0.8235315,0.33108 -0.8235315,0.81762 0,0.30591 0.2787164,0.30844 0.8808389,0.30844"
       id="path14755"
       inkscape:connector-curvature="0"
       sodipodi:nodetypes="cccc" />
    <path
       style="fill:none;fill-rule:evenodd;stroke:#000000;stroke-width:0.12841111;stroke-linecap:butt;stroke-linejoin:miter;stroke-miterlimit:4;stroke-dasharray:none;stroke-opacity:1"
       d="M 3.1687833,295.55776 H 3.618524"
       id="path14759"
       inkscape:connector-curvature="0" />
    <path
       style="fill:none;fill-rule:evenodd;stroke:#000000;stroke-width:0.12841111;stroke-linecap:butt;stroke-linejoin:miter;stroke-miterlimit:4;stroke-dasharray:none;stroke-opacity:1"
       d="M 2.5580614,295.55776 H 3.1687833"
       id="path14757"
       inkscape:connector-curvature="0"
       sodipodi:nodetypes="cc" />
    <circle
       style="opacity:0.98999999;fill:none;fill-opacity:1;stroke:#000000;stroke-width:0.12841111;stroke-linecap:butt;stroke-linejoin:round;stroke-miterlimit:4;stroke-dasharray:none;stroke-opacity:1"
       id="path14761"
       cx="0.40865773"
       cy="294.20963"
       r="0.20122792" />
    <circle
       style="opacity:0.98999999;fill:none;fill-opacity:1;stroke:#000000;stroke-width:0.12841111;stroke-linecap:butt;stroke-linejoin:round;stroke-miterlimit:4;stroke-dasharray:none;stroke-opacity:1"
       id="path14761-2"
       cx="3.8078177"
       cy="295.55777"
       r="0.21808577" />
  </g>
</svg>
