<?xml version="1.0" encoding="UTF-8" standalone="no"?>
<!-- Created with Inkscape (http://www.inkscape.org/) -->

<svg
   xmlns:dc="http://purl.org/dc/elements/1.1/"
   xmlns:cc="http://creativecommons.org/ns#"
   xmlns:rdf="http://www.w3.org/1999/02/22-rdf-syntax-ns#"
   xmlns:svg="http://www.w3.org/2000/svg"
   xmlns="http://www.w3.org/2000/svg"
   xmlns:xlink="http://www.w3.org/1999/xlink"
   xmlns:sodipodi="http://sodipodi.sourceforge.net/DTD/sodipodi-0.dtd"
   xmlns:inkscape="http://www.inkscape.org/namespaces/inkscape"
   width="72"
   height="72"
   viewBox="0 0 19.05 19.05"
   version="1.1"
   id="svg8"
   inkscape:version="0.92.3 (2405546, 2018-03-11)"
   sodipodi:docname="facc-concept-small.svg">
  <defs
     id="defs2">
    <pattern
       inkscape:collect="always"
       xlink:href="#pattern1554"
       id="pattern1563"
       patternTransform="matrix(0.27323522,0,0,0.2723937,1.5490105,279.5462)" />
    <pattern
       patternUnits="userSpaceOnUse"
       width="58.3464"
       height="58.343553"
       patternTransform="matrix(0.26458333,0,0,0.26458333,1.8062574,279.75668)"
       id="pattern1554">
      <g
         id="g1552"
         transform="matrix(3.7795276,0,0,3.7795276,-6.8267995,-1057.3481)">
        <rect
           style="opacity:1;fill:#006ed4;fill-opacity:1;stroke:none;stroke-width:0.12018538;stroke-linecap:butt;stroke-linejoin:round;stroke-miterlimit:4;stroke-dasharray:none;stroke-opacity:1"
           id="rect1548"
           width="7.7185001"
           height="7.7185001"
           x="1.8062574"
           y="279.75668" />
        <rect
           style="opacity:1;fill:#1b8955;fill-opacity:1;stroke:none;stroke-width:0.12018538;stroke-linecap:butt;stroke-linejoin:round;stroke-miterlimit:4;stroke-dasharray:none;stroke-opacity:1"
           id="rect1548-3"
           width="7.7185006"
           height="7.7185006"
           x="9.5252419"
           y="279.75668" />
        <rect
           style="opacity:1;fill:#da0011;fill-opacity:1;stroke:none;stroke-width:0.12018538;stroke-linecap:butt;stroke-linejoin:round;stroke-miterlimit:4;stroke-dasharray:none;stroke-opacity:1"
           id="rect1548-6"
           width="7.7185006"
           height="7.7185006"
           x="1.8062574"
           y="287.47491" />
        <rect
           style="opacity:1;fill:#efba17;fill-opacity:1;stroke:none;stroke-width:0.12018538;stroke-linecap:butt;stroke-linejoin:round;stroke-miterlimit:4;stroke-dasharray:none;stroke-opacity:1"
           id="rect1548-7"
           width="7.7185006"
           height="7.7185006"
           x="9.5252419"
           y="287.47491" />
      </g>
    </pattern>
  </defs>
  <sodipodi:namedview
     id="base"
     pagecolor="#ffffff"
     bordercolor="#666666"
     borderopacity="1.0"
     inkscape:pageopacity="0.0"
     inkscape:pageshadow="2"
     inkscape:zoom="11.313709"
     inkscape:cx="26.78732"
     inkscape:cy="33.261509"
     inkscape:document-units="mm"
     inkscape:current-layer="layer1"
     showgrid="false"
     units="px"
     inkscape:window-width="1920"
     inkscape:window-height="1007"
     inkscape:window-x="0"
     inkscape:window-y="0"
     inkscape:window-maximized="1" />
  <metadata
     id="metadata5">
    <rdf:RDF>
      <cc:Work
         rdf:about="">
        <dc:format>image/svg+xml</dc:format>
        <dc:type
           rdf:resource="http://purl.org/dc/dcmitype/StillImage" />
        <dc:title></dc:title>
      </cc:Work>
    </rdf:RDF>
  </metadata>
  <g
     inkscape:label="Layer 1"
     inkscape:groupmode="layer"
     id="layer1"
     transform="translate(0,-277.95006)">
    <path
       style="fill:none;fill-rule:evenodd;stroke:#000000;stroke-width:0.57707703;stroke-linecap:butt;stroke-linejoin:miter;stroke-miterlimit:4;stroke-dasharray:none;stroke-opacity:1"
       d="M 4.7286209,284.45055 H 7.7469298"
       id="path14753"
       inkscape:connector-curvature="0"
       sodipodi:nodetypes="cc" />
    <path
       style="fill:none;fill-rule:evenodd;stroke:#000000;stroke-width:0.57707703;stroke-linecap:butt;stroke-linejoin:miter;stroke-miterlimit:4;stroke-dasharray:none;stroke-opacity:1"
       d="M 2.6765191,284.45055 H 4.7286209"
       id="path10854"
       inkscape:connector-curvature="0" />
    <path
       id="path817"
       style="opacity:1;fill:url(#pattern1563);fill-opacity:1;stroke:none;stroke-width:0.0557057;stroke-linecap:butt;stroke-linejoin:round;stroke-miterlimit:4;stroke-dasharray:none;stroke-opacity:1"
       d="m 8.3482241,279.75669 -0.5898044,1.72791 c -0.4221947,0.12539 -0.8299571,0.29505 -1.2164956,0.50614 l -1.6207012,-0.81544 -1.6779847,1.67802 0.7798523,1.66326 c -0.2068748,0.38651 -0.3725229,0.7937 -0.4942111,1.21486 l -1.722622,0.55162 v 2.37302 l 1.727964,0.58474 c 0.1239277,0.41881 0.2914016,0.82349 0.4996783,1.2074 l -0.8008235,1.63522 1.6779845,1.67799 1.6603168,-0.77855 c 0.3799224,0.20334 0.7798513,0.36685 1.1934038,0.48793 l 0.569528,1.72262 h 2.3730567 l 0.59866,-1.72796 c 0.416813,-0.12432 0.819514,-0.2918 1.201561,-0.49973 l 1.636368,0.79973 1.677986,-1.67798 -0.786422,-1.65734 c 0.202133,-0.37792 0.364869,-0.77562 0.485643,-1.18684 l 1.72258,-0.57336 v -2.37302 l -1.727965,-0.60163 c -0.127871,-0.42723 -0.30109,-0.83955 -0.516691,-1.22992 l 0.82057,-1.61557 -1.677984,-1.67797 -1.634125,0.80954 c -0.390379,-0.21044 -0.802045,-0.37875 -1.22804,-0.50208 l -0.558227,-1.72261 z m 4.9664269,7.71981 a 3.7868553,3.7868553 0 0 1 -3.7868562,3.78686 3.7868553,3.7868553 0 0 1 -3.7868545,-3.78686 3.7868553,3.7868553 0 0 1 3.7868545,-3.78686 3.7868553,3.7868553 0 0 1 3.7868562,3.78686 z"
       inkscape:connector-curvature="0" />
    <path
       style="fill:none;fill-rule:evenodd;stroke:#000000;stroke-width:0.57707703;stroke-linecap:butt;stroke-linejoin:miter;stroke-miterlimit:4;stroke-dasharray:none;stroke-opacity:1"
       d="m 7.7469298,284.45055 c 2.3285172,0 3.5022182,-0.0829 3.5022182,0.99689 0,2.08308 -3.696789,1.48621 -3.696789,3.67026 0,1.37322 1.2511428,1.38458 3.954039,1.38458"
       id="path14755"
       inkscape:connector-curvature="0"
       sodipodi:nodetypes="cccc" />
    <path
       style="fill:none;fill-rule:evenodd;stroke:#000000;stroke-width:0.57707703;stroke-linecap:butt;stroke-linejoin:miter;stroke-miterlimit:4;stroke-dasharray:none;stroke-opacity:1"
       d="m 14.247896,290.50228 h 2.018862"
       id="path14759"
       inkscape:connector-curvature="0" />
    <path
       style="fill:none;fill-rule:evenodd;stroke:#000000;stroke-width:0.57707703;stroke-linecap:butt;stroke-linejoin:miter;stroke-miterlimit:4;stroke-dasharray:none;stroke-opacity:1"
       d="m 11.506398,290.50228 h 2.741498"
       id="path14757"
       inkscape:connector-curvature="0"
       sodipodi:nodetypes="cc" />
    <ellipse
       style="opacity:0.98999999;fill:none;fill-opacity:1;stroke:#000000;stroke-width:0.57707703;stroke-linecap:butt;stroke-linejoin:round;stroke-miterlimit:4;stroke-dasharray:none;stroke-opacity:1"
       id="path14761"
       cx="1.8578398"
       cy="284.45056"
       rx="0.90330142"
       ry="0.90330136" />
    <circle
       style="opacity:0.98999999;fill:none;fill-opacity:1;stroke:#000000;stroke-width:0.57707703;stroke-linecap:butt;stroke-linejoin:round;stroke-miterlimit:4;stroke-dasharray:none;stroke-opacity:1"
       id="path14761-2"
       cx="17.116488"
       cy="290.50226"
       r="0.97897542" />
  </g>
</svg>
